<svg xmlns="http://www.w3.org/2000/svg" width="1136" height="207" fill="none" viewBox="0 0 1136 207"><path fill="#fff" d="M196.818 206.763h24.809c29.268 0 53.214-24.085 53.214-53.524V53.527C274.841 24.087 250.895 0 221.627 0h-24.809c-29.268 0-53.214 24.085-53.214 53.527v99.712c0 29.438 23.946 53.524 53.214 53.524Zm-8.892-148.76a21.278 21.278 0 0 1 13.116-19.788 21.32 21.32 0 0 1 23.296 4.65 21.276 21.276 0 0 1 6.188 15.139v90.756a21.255 21.255 0 0 1-6.188 15.14 21.304 21.304 0 0 1-23.296 4.649 21.283 21.283 0 0 1-13.116-19.789V58.004ZM78.943 2.091v153.451c0 10.254-8.301 15.159-18.551 15.159-10.25 0-18.566-4.905-18.566-15.159V112.68H.05v52.851s.482 41.232 60.067 41.232c62.345 0 62.809-40.153 62.918-43.662l.045-161.012-44.137.002ZM919.136 118.06h57.335V83.153h-57.335V38.385h61.602V2.233H874.975v201.213h106.489v-36.244h-62.328V118.06ZM633.382.001c-29.267 0-53.214 24.085-53.214 53.524v99.715c0 29.438 23.947 53.525 53.214 53.525h24.81c29.267 0 53.214-24.086 53.214-53.525V53.525C711.406 24.087 687.459 0 658.192 0h-24.81Zm33.705 148.759a21.26 21.26 0 0 1-6.167 15.178 21.317 21.317 0 0 1-23.33 4.665 21.296 21.296 0 0 1-11.539-11.638 21.242 21.242 0 0 1-1.563-8.205V58.004a21.261 21.261 0 0 1 6.167-15.177 21.312 21.312 0 0 1 34.869 6.972 21.266 21.266 0 0 1 1.563 8.205v90.756ZM580.344 203.444 524.623 99.759l54.661-97.53h-45.765l-50.755 94.335V2.23H438.66v201.21h44.104v-95.828l51.376 95.828 46.204.004ZM1096 2.234h-69.47l-38.817 201.211h41.907l8.66-47.372h46.26l7.58 47.372h43.83L1096 2.235Zm-51 119.281 16.94-87.563 16.93 87.563H1045ZM846.807 131.155c-1.539-6.339-4.274-10.544-9.924-12.532 12.174-5.581 19.019-17.846 19.019-35.575V51.946a49.438 49.438 0 0 0-8.217-27.359A47.57 47.57 0 0 0 830.51 8.252a47.623 47.623 0 0 0-22.932-6.026h-75.531V203.44h44.161v-66.023l28.283-8.937L821 203.447h43.018l-17.211-72.292Zm-35.023-50.799c0 9.645-6.117 14.87-12.989 17.11a8855.341 8855.341 0 0 1-22.584 7.284V33.98h20.48c7.262 0 15.095 5.4 15.095 14.993l-.002 31.383ZM421.783 134.762s.804-27.218-25.745-33.557a36.395 36.395 0 0 0 15.701-12.246 36.338 36.338 0 0 0 6.897-18.67l.112-26.221a41.608 41.608 0 0 0-6.71-22.642 41.663 41.663 0 0 0-17.956-15.355 42.262 42.262 0 0 0-17.026-3.838h-81.697v201.212h82.122a47.348 47.348 0 0 0 13.941-2.263 44.018 44.018 0 0 0 22.012-16.01 43.956 43.956 0 0 0 8.376-25.885l-.027-24.525Zm-82.58-105.406h21.189a14.857 14.857 0 0 1 10.149 4.447 14.832 14.832 0 0 1 4.241 10.23v21.35c0 7.938-6.82 11.784-14.473 14.22-10.21 3.25-21.095 6.675-21.095 6.675l-.011-56.922ZM377.36 154.67c0 4.242-1.687 8.311-4.69 11.312a16.02 16.02 0 0 1-11.322 4.685h-22.145v-52.534l22.674-7.167c11.464 0 15.483 11.854 15.483 20.396v23.308Z"/></svg>