<svg xmlns="http://www.w3.org/2000/svg" xml:space="preserve" width="802.40381" height="199.02083" viewBox="0 0 802.40381 199.02082"><defs><clipPath id="a" clipPathUnits="userSpaceOnUse"><path d="M0 841.89h595.28V0H0Z"/></clipPath></defs><g clip-path="url(#a)" style="stroke-width:.519112" transform="matrix(2.56849 0 0 -2.56849 -361.904 1180.953)"><g style="stroke-width:.519112"><path d="M0 0c.272.557.488 1.148.827 1.66 1.627 2.453 4.46 3.11 7.254 1.451 3.612-2.144 7.507-3.16 11.64-3.242 1.635-.031 3.32.233 4.908.645 1.699.439 2.765 1.67 2.879 3.515.113 1.823-.859 3.125-2.436 3.696-2.134.771-4.398 1.179-6.584 1.816-3.141.916-6.399 1.592-9.363 2.918-5.088 2.277-8.008 6.281-7.831 12.082.178 5.791 3.003 9.918 8.181 12.428 4.505 2.183 9.312 2.366 14.171 1.879 3.497-.35 6.894-1.143 9.983-2.924 1.925-1.108 3.198-2.64 3.156-5.001-.066-3.6-3.045-5.874-6.713-5.04-.961.219-1.867.683-2.792 1.051-3.328 1.325-6.733 2.203-10.344 1.577-.884-.153-1.795-.445-2.568-.89-2.509-1.443-2.632-4.699-.096-6.06 1.683-.903 3.646-1.325 5.521-1.819 3.092-.812 6.282-1.305 9.307-2.305 4.367-1.445 7.859-4.025 9.115-8.785 1.862-7.054-1.55-14.316-8.322-17.207-2.293-.978-4.863-1.314-7.309-1.933-.438-.112-.89-.176-1.335-.262H18.5c-.613.086-1.223.209-1.838.252-3.465.244-6.832.937-10.015 2.34C3.815-6.908 1.084-5.49 0-2.25Z" style="fill:#413f40;fill-opacity:1;fill-rule:evenodd;stroke:none;stroke-width:.519112" transform="translate(140.901 393.05)"/></g><g style="stroke-width:.519112"><path d="M0 0c3.22 2.5 6.975 4.226 11.201 4.74 4.354.531 8.665.299 12.747-1.486 4.942-2.16 7.429-6.233 8.421-11.332.324-1.668.518-3.386.528-5.082.055-8.123.041-16.246.021-24.369-.007-2.982-2.185-5.431-5.027-5.762-2.952-.343-5.621 1.53-6.3 4.487-.165.719-.155 1.488-.156 2.234-.011 6.957-.007 13.914-.007 20.871v.875c-.012 6.658-3.694 9.725-10.241 8.435C9.9-6.642 8.68-7.24 7.438-7.707c-.926-.347-1.235-.996-1.23-2.027.045-9.123.014-18.246.033-27.369.005-2.621-.988-4.635-3.423-5.73-3.834-1.727-8.069 1.128-8.088 5.457-.031 7.498-.008 14.998-.009 22.496 0 .5.008 1-.02 1.498-.275 4.748-2.994 7.299-7.748 7.242-2.194-.026-4.27-.527-6.23-1.567-.842-.447-1.161-.962-1.157-1.939.041-9.08.029-18.162.022-27.244-.003-3.092-1.393-5.311-3.8-6.123-3.913-1.32-7.734 1.488-7.768 5.769-.04 4.957-.009 9.914-.01 14.871 0 5.916.031 11.832-.016 17.747-.016 2.011.684 3.549 2.373 4.646 7.593 4.926 15.68 6.56 24.338 3.334C-3.442 2.664-1.873 1.213 0 0" style="fill:#413f40;fill-opacity:1;fill-rule:evenodd;stroke:none;stroke-width:.519112" transform="translate(348.453 427.14)"/></g><g style="stroke-width:.519112"><path d="M0 0c0 1.166.061 2.338-.035 3.496-.03.369-.406.916-.739 1.024-3.404 1.082-6.9 1.562-10.466 1.199-1.901-.196-3.659-.873-4.992-2.317-2.961-3.207-1.215-8.238 3.325-9.4 3.79-.967 7.497-.494 11.12.971C-.394-4.465.273-3.66.021-2.121-.091-1.432.002-.707 0 0m.074 12.154c-.098 1.756-.033 3.356-.306 4.895-.531 3-2.811 4.63-6.484 4.967-3.801.348-7.447-.362-11.08-1.381a11.6 11.6 0 0 0-3.685-.395c-2.092.106-3.634 1.431-4.12 3.244-.567 2.115-.019 4.471 1.74 5.456a22.7 22.7 0 0 0 5.865 2.288c5.615 1.307 11.299 1.56 16.958.21 7.35-1.754 11.845-7.013 12.047-14.598.22-8.244.074-16.498.087-24.746.002-1.543-.853-2.553-2.084-3.326-3.473-2.182-7.287-3.452-11.3-4.123-5.471-.918-10.942-1.163-16.307.619-8.805 2.925-12.896 12.492-8.742 20.451 2.222 4.258 6.041 6.295 10.552 7.207 5.361 1.082 10.687.68 15.969-.608.194-.046.394-.072.89-.16" style="fill:#413f40;fill-opacity:1;fill-rule:evenodd;stroke:none;stroke-width:.519112" transform="translate(214.053 399.825)"/></g><g style="stroke-width:.519112"><path d="m0 0 .093.006C-.002 1.4.395 3.205-.33 4.076c-.733.881-2.558.953-3.938 1.18-3.248.535-6.525.945-9.696-.387-1.812-.76-3.14-2.037-3.558-4.037-.693-3.316 1.107-6.09 4.639-6.957C-9.004-7.078-5.229-6.6-1.56-5.033-.374-4.527.212-3.834.021-2.49-.094-1.676 0-.832 0 0m.13 12.258c-.169 1.711-.16 3.515-.557 5.226-.62 2.674-2.866 4.102-6.257 4.413-3.754.345-7.363-.328-10.961-1.321a13.1 13.1 0 0 0-3.924-.445c-1.845.069-3.261 1.035-3.886 2.831-.636 1.832-.532 3.659.812 5.161.62.691 1.433 1.355 2.291 1.663 7.686 2.763 15.529 3.449 23.367.874 6.375-2.095 9.554-7.003 9.902-13.49.347-6.479.148-12.986.186-19.481.009-1.541-.082-3.087.021-4.621.155-2.281-.84-3.765-2.787-4.851-3.873-2.158-8.03-3.414-12.394-3.973-4.65-.598-9.3-.676-13.866.67-8.715 2.566-13.143 11.041-10.043 19.318 1.747 4.666 5.419 7.145 10.053 8.313 5.31 1.338 10.645 1.072 15.957-.1a51 51 0 0 1 1.586-.324c.072-.014.158.039.5.137" style="fill:#413f40;fill-opacity:1;fill-rule:evenodd;stroke:none;stroke-width:.519112" transform="translate(295.634 399.94)"/></g><g style="stroke-width:.519112"><path d="M0 0c0 5.373.063 10.748-.029 16.122-.041 2.361.887 3.927 2.909 5.072 5.403 3.057 11.263 4.274 17.381 4.243 2.726-.013 5.514-.219 8.165-.821 7.565-1.721 12.461-7.382 12.745-15.139.323-8.821.259-17.657.224-26.485-.015-3.57-2.616-5.9-6.007-5.787-3.164.108-5.576 2.766-5.578 6.178-.007 7.248.002 14.498-.004 21.746-.005 5.994-3.397 9.346-9.418 9.253-2.644-.041-5.197-.57-7.639-1.636-.882-.385-1.222-.881-1.218-1.875.04-9.166.03-18.33.02-27.494-.003-3.002-1.397-5.086-3.891-5.897C3.943-23.727.096-21.074.038-17.121-.045-11.416.017-5.707.017 0Z" style="fill:#413f40;fill-opacity:1;fill-rule:evenodd;stroke:none;stroke-width:.519112" transform="translate(411.88 406.612)"/></g><g style="stroke-width:.519112"><path d="M0 0c-.001-4.33.015-8.662-.007-12.992-.014-2.584-1.441-4.641-3.75-5.518-2.249-.855-4.849-.279-6.437 1.444-.938 1.017-1.452 2.222-1.452 3.617 0 9.619-.08 19.24.036 28.857.094 7.925 5.227 13.365 13.159 13.858 3.253.202 6.559-.145 9.817-.477 1.218-.124 2.469-.761 3.531-1.438 2.152-1.373 2.923-3.83 2.138-6.108-.838-2.431-2.857-3.864-5.457-3.684-1.654.114-3.289.48-4.938.687-4.348.545-6.588-1.381-6.631-5.754C-.031 8.328 0 4.164 0 0" style="fill:#413f40;fill-opacity:1;fill-rule:evenodd;stroke:none;stroke-width:.519112" transform="translate(246.578 402.677)"/></g><g style="stroke-width:.519112"><path d="M0 0a8.302 8.302 0 1 0-16.605 0A8.302 8.302 0 0 0 0 0" style="fill:#486cb3;fill-opacity:1;fill-rule:evenodd;stroke:none;stroke-width:.519112" transform="translate(404.438 451.483)"/></g><g style="stroke-width:.519112"><path d="M0 0c0-2.877-2.437-5.209-5.443-5.209S-10.886-2.877-10.886 0v32.416c0 2.876 2.437 5.209 5.443 5.209S0 35.292 0 32.416z" style="fill:#486cb3;fill-opacity:1;fill-rule:evenodd;stroke:none;stroke-width:.519112" transform="translate(401.772 400.265)"/></g></g></svg>